HIERARCHY
ROOT Hips
{
	OFFSET -3.958830 18.904000 13.208200
	CHANNELS 6 Xposition Yposition Zposition Zrotation Yrotation Xrotation 
	JOINT LHipJoint
	{
		OFFSET 0.000000 0.000000 0.000000
		CHANNELS 3 Zrotation Yrotation Xrotation
		JOINT LeftUpLeg
		{
			OFFSET 1.800000 -1.400000 0.085000
			CHANNELS 3 Zrotation Yrotation Xrotation
			JOINT LeftLeg
			{
				OFFSET 2.215000 -6.000000 0.000000
				CHANNELS 3 Zrotation Yrotation Xrotation
				JOINT LeftFoot
				{
					OFFSET 2.500000 -6.900000 0.000000
					CHANNELS 3 Zrotation Yrotation Xrotation
					JOINT LeftToeBase
					{
						OFFSET 0.200000 -0.500000 1.950000
						CHANNELS 3 Zrotation Yrotation Xrotation
						End Site
						{
							OFFSET 0.000000 0.000000 0.000000
						}
					}
				}
			}
		}
	}
	JOINT RHipJoint
	{
		OFFSET 0.000000 0.000000 0.000000
		CHANNELS 3 Zrotation Yrotation Xrotation
		JOINT RightUpLeg
		{
			OFFSET -1.800000 -1.400000 0.085000
			CHANNELS 3 Zrotation Yrotation Xrotation
			JOINT RightLeg
			{
				OFFSET -2.215000 -6.000000 0.000000
				CHANNELS 3 Zrotation Yrotation Xrotation
				JOINT RightFoot
				{
					OFFSET -2.500000 -6.900000 0.000000
					CHANNELS 3 Zrotation Yrotation Xrotation
					JOINT RightToeBase
					{
						OFFSET -0.200000 -0.500000 1.950000
						CHANNELS 3 Zrotation Yrotation Xrotation
						End Site
						{
							OFFSET 0.000000 0.000000 0.000000
						}
					}
				}
			}
		}
	}
	JOINT LowerBack
	{
		OFFSET 0.000000 0.000000 0.000000
		CHANNELS 3 Zrotation Yrotation Xrotation
		JOINT Spine
		{
			OFFSET -0.087000 1.940000 -0.288900
			CHANNELS 3 Zrotation Yrotation Xrotation
			JOINT Spine1
			{
				OFFSET 0.000000 1.950000 0.060000
				CHANNELS 3 Zrotation Yrotation Xrotation
				JOINT Neck
				{
					OFFSET 0.000000 0.000000 0.000000
					CHANNELS 3 Zrotation Yrotation Xrotation
					JOINT Neck1
					{
						OFFSET 0.000000 1.600000 0.340000
						CHANNELS 3 Zrotation Yrotation Xrotation
						JOINT Head
						{
							OFFSET 0.000000 1.667000 -0.240000
							CHANNELS 3 Zrotation Yrotation Xrotation
							End Site
							{
								OFFSET 0.000000 0.000000 0.000000
							}
						}
					}
				}
				JOINT LeftShoulder
				{
					OFFSET 0.000000 0.000000 0.000000
					CHANNELS 3 Zrotation Yrotation Xrotation
					JOINT LeftArm
					{
						OFFSET 2.700000 1.550000 -0.730000
						CHANNELS 3 Zrotation Yrotation Xrotation
						JOINT LeftForeArm
						{
							OFFSET 5.450000 0.000000 0.000000
							CHANNELS 3 Zrotation Yrotation Xrotation
							JOINT LeftHand
							{
								OFFSET 3.450000 0.000000 0.000000
								CHANNELS 3 Zrotation Yrotation Xrotation
								JOINT LeftHandIndex1
								{
									OFFSET 0.750000 0.000000 0.000000
									CHANNELS 3 Zrotation Yrotation Xrotation
									End Site
									{
										OFFSET 0.000000 0.000000 0.000000
									}
								}
							}
						}
					}
				}
				JOINT RightShoulder
				{
					OFFSET 0.000000 0.000000 0.000000
					CHANNELS 3 Zrotation Yrotation Xrotation
					JOINT RightArm
					{
						OFFSET -2.700000 1.550000 -0.730000
						CHANNELS 3 Zrotation Yrotation Xrotation
						JOINT RightForeArm
						{
							OFFSET -5.450000 0.000000 0.000000
							CHANNELS 3 Zrotation Yrotation Xrotation
							JOINT RightHand
							{
								OFFSET -3.450000 0.000000 0.000000
								CHANNELS 3 Zrotation Yrotation Xrotation
								JOINT RightHandIndex1
								{
									OFFSET -0.750000 0.000000 0.000000
									CHANNELS 3 Zrotation Yrotation Xrotation
									End Site
									{
										OFFSET 0.000000 0.000000 0.000000
									}
								}
							}
						}
					}
				}
			}
		}
	}
}
MOTION
Frames: 4
Frame Time: 0.016667
15.243680 16.105460 -20.692770 3.436585 -10.330778 -0.083373 -15.271569 12.524973 2.570680 -0.161638 -1.611346 -13.129071 -3.978422 12.152980 45.339923 0.519922 8.354824 1.504165 0.704490 0.786930 0.310780 18.325356 -9.131290 5.188786 -23.980823 4.645986 -43.706180 19.006184 -3.551779 6.505113 -0.343470 -3.065885 2.802555 0.480120 -0.019380 0.176370 -3.534084 -1.199097 -8.746488 13.266220 -2.271190 16.860352 -6.102603 -0.219814 13.541208 8.380461 2.111859 -16.333083 4.207524 -13.955119 23.404131 8.248360 -13.338230 -27.904990 -15.498529 -36.445981 12.210357 -40.484000 -28.241257 8.289263 5.272659 -5.528072 -0.827730 -3.464088 3.233231 0.372560 -0.236910 0.277470 0.214060 -1.666951 40.337699 3.377629 -1.478273 21.054013 -18.584900 -42.914671 58.921494 -22.026415 1.922555 -1.401624 0.073940 0.263630 -0.150380 0.103450 
15.199980 16.085380 -20.664080 4.275214 -8.978151 -0.771144 -15.362797 12.613808 2.754860 -0.303070 -2.208528 -13.682033 -4.709947 13.044279 47.506965 0.732399 8.857743 1.354729 0.636000 0.717740 0.279530 18.226041 -9.027636 5.056839 -23.985611 4.064431 -43.294765 18.482015 -3.945542 7.554816 -0.325533 -3.103976 2.808730 0.402120 -0.032720 0.188340 -3.239742 -1.673252 -8.848440 11.086142 -2.186656 18.011541 -5.348970 -0.430474 12.619186 8.016796 2.762565 -16.999585 4.781400 -14.644513 24.581024 7.756790 -13.853790 -26.676510 -16.482621 -36.919381 12.336360 -39.822367 -28.620206 8.372227 3.569321 -5.159295 -0.587656 -3.475040 3.221090 0.343790 -0.230000 0.281030 0.193050 -0.163263 40.509381 4.121025 -1.408490 19.070936 -19.340904 -43.223710 61.754916 -23.082131 1.882410 -1.320528 0.104380 0.212910 -0.143600 0.115060 
15.125450 16.036630 -20.570840 5.115276 -9.497844 -1.385618 -15.323874 12.815454 2.758866 -1.173265 -1.630996 -12.245318 -3.611812 12.687830 47.864683 0.834795 8.847446 1.429948 0.495480 0.540420 0.179820 18.232487 -9.071522 5.043365 -23.426514 4.278958 -43.353165 18.521642 -4.357627 9.189248 -0.283072 -3.111955 2.867014 0.265950 0.010860 0.161420 -3.277716 -1.982608 -8.891022 11.233513 -2.572953 18.852129 -6.244090 -0.242600 11.968648 7.154250 1.543928 -18.067166 2.087364 -15.173488 26.359186 8.927710 -15.665450 -25.783110 -15.593194 -37.517573 12.178793 -40.530753 -28.822426 8.447533 1.014562 -6.210479 -0.362120 -3.426869 3.160731 0.355440 -0.234680 0.245740 0.185050 0.586776 41.633875 5.929522 1.520653 17.599836 -20.712455 -49.387588 61.768864 -27.078746 1.907912 -1.135318 0.076770 0.215400 -0.100320 0.133350 
15.031570 16.011710 -20.431060 5.552397 -10.835934 -2.892153 -15.280247 13.299997 2.725403 -0.739455 0.237321 -8.244141 -3.390308 12.432047 45.211817 0.814288 8.441512 1.532270 0.499430 0.513360 0.219060 18.171433 -9.470242 4.729607 -18.595360 5.304453 -42.632067 14.520969 -4.480195 12.752999 -0.235213 -2.597775 3.017847 0.207980 -0.086340 0.216890 -3.181958 -2.206754 -8.751868 11.013945 -2.567545 19.856273 -7.552331 0.298269 12.476499 7.749098 1.105979 -19.046663 0.646441 -14.428532 28.842265 8.656190 -15.160420 -26.921680 -16.417872 -37.669605 12.454364 -40.641698 -28.397539 7.512682 1.404263 -7.418058 -0.477865 -3.346647 3.248730 0.403730 -0.293940 0.309400 0.140880 0.286179 42.684853 6.691242 2.853266 17.851324 -21.294587 -50.652093 59.582697 -27.161939 2.014441 -1.195958 0.134340 0.112910 -0.096860 0.110010 
